<?xml version="1.0" encoding="UTF-8"?>
<svg width="700pt" height="700pt" version="1.1" viewBox="0 0 700 700" xmlns="http://www.w3.org/2000/svg">
 <g fill-rule="evenodd">
  <path d="m350 40.195c-132.24 0-239.82 107.58-239.82 239.8s107.58 239.8 239.82 239.8c132.23 0 239.8-107.58 239.8-239.8 0-132.23-107.58-239.8-239.8-239.8zm0 491.12c-67.133 0-130.25-26.137-177.71-73.605-47.469-47.469-73.617-110.57-73.617-177.71 0-67.133 26.148-130.24 73.617-177.71 47.461-47.469 110.58-73.605 177.71-73.605 67.125 0 130.24 26.137 177.71 73.605 47.461 47.469 73.609 110.58 73.609 177.71 0 67.133-26.148 130.24-73.609 177.71-47.469 47.469-110.59 73.609-177.71 73.605z"/>
  <path d="m350 119.91c-54.562 0-107.95-7.7617-158.66-23.078-2.4375-0.67188-4.2266-2.8984-4.2266-5.5469 0-3.1758 2.5664-5.7539 5.7461-5.7539h0.019531c0.55859 0 1.1172 0.082031 1.6562 0.25 49.676 15.008 101.98 22.621 155.47 22.621 53.477 0 105.78-7.6133 155.46-22.621 0.53906-0.16797 1.0977-0.25 1.668-0.25 3.1797 0 5.7539 2.5781 5.7539 5.7539 0 2.6758-1.8281 4.9375-4.3086 5.5742-50.695 15.297-104.05 23.051-158.57 23.051z"/>
  <path d="m485.11 175.03c-2.5664 0-4.9062-1.7383-5.5664-4.3359-0.78906-3.0859 1.0703-6.2148 4.1562-7.0039 23.961-6.1055 47.43-13.918 69.75-23.23 2.9375-1.2188 6.3047 0.17188 7.5234 3.0977 1.2305 2.9375-0.16016 6.3047-3.0977 7.5352-22.832 9.5234-46.832 17.516-71.34 23.762-0.48047 0.12109-0.96094 0.17969-1.4297 0.17969z"/>
  <path d="m350 191.77c-73.199 0-143.14-13.688-207.88-40.676-2.9336-1.2305-4.3281-4.5977-3.0977-7.5352 1.2227-2.9258 4.5977-4.3164 7.5234-3.0977 63.336 26.406 131.79 39.797 203.46 39.797 33.941 0 67.711-3.0977 100.38-9.2227 3.1172-0.58203 6.125 1.4805 6.7148 4.5938 0.58984 3.1289-1.4688 6.1367-4.5977 6.7266-33.359 6.2422-67.852 9.4102-102.5 9.4102z"/>
  <path d="m350 263.66c-34.609 0-69.113-3.168-102.54-9.4219-3.1172-0.57812-5.1836-3.5859-4.5977-6.7148 0.58203-3.1172 3.5977-5.1758 6.7148-4.5977 32.723 6.125 66.504 9.2227 100.41 9.2227 81.773 0 161.75-18.133 231.3-52.445 2.8477-1.4102 6.3047-0.23828 7.7148 2.6172 1.3984 2.8477 0.23047 6.293-2.6172 7.7031-71.129 35.09-152.88 53.633-236.4 53.633z"/>
  <path d="m214.87 246.91c-0.48047 0-0.94922-0.050781-1.4297-0.17969-34.871-8.8828-68.461-21.23-99.848-36.711-2.8438-1.4102-4.0156-4.8555-2.6055-7.7031 1.3984-2.8594 4.8555-4.0273 7.7031-2.6172 30.664 15.117 63.504 27.195 97.586 35.879 3.0898 0.78906 4.9453 3.918 4.1562 7.0039-0.66016 2.5977-2.9961 4.3281-5.5664 4.3242z"/>
  <path d="m350 479.28c-65.184 0-128.14-10.949-187.11-32.543-2.9883-1.0977-4.5273-4.4062-3.4258-7.3828 1.0898-2.9883 4.3945-4.5273 7.3828-3.4258 57.703 21.133 119.33 31.844 183.16 31.844 63.824 0 125.44-10.711 183.14-31.844 2.9883-1.1016 6.293 0.44141 7.3828 3.4258 1.0977 2.9766-0.44141 6.2852-3.418 7.3828-58.98 21.59-121.94 32.543-187.11 32.543z"/>
  <path d="m419.06 331.26c-1.5898 0-3.1172-0.64844-4.207-1.8281-14.996-16.078-38.625-25.297-64.844-25.297-26.227 0-49.859 9.2227-64.844 25.297-1.2695 1.3477-3.0977 2.0078-4.9258 1.7891-63.934-7.9844-123.93-26.578-178.31-55.273-2.8164-1.4883-3.8867-4.9648-2.4062-7.7734 1.4883-2.8164 4.9648-3.8984 7.7734-2.4062 52.344 27.617 110.04 45.672 171.52 53.664 17.195-17.066 42.945-26.809 71.191-26.809 28.234 0 53.984 9.7422 71.18 26.809 61.488-7.9922 119.18-26.047 171.52-53.664 2.8086-1.4805 6.293-0.41016 7.7734 2.4062 1.4883 2.8086 0.41016 6.2852-2.4102 7.7734-54.383 28.695-114.37 47.289-178.31 55.273-0.23047 0.03125-0.46875 0.039062-0.70703 0.039062z"/>
  <path d="m350 438.82c-33.641 0-63.926-14.137-79.824-37.07-56.461-8.1055-109.92-24.629-158.95-49.137-2.8359-1.4297-3.9883-4.8867-2.5664-7.7227 1.418-2.8477 4.875-3.9961 7.7227-2.5781 48.641 24.32 101.77 40.605 157.95 48.398 1.6719 0.23047 3.1562 1.1875 4.0547 2.6094 13.352 20.973 40.785 33.992 71.609 33.992s58.25-13.02 71.598-33.992c0.89844-1.418 2.3867-2.3789 4.0586-2.6094 56.172-7.793 109.32-24.078 157.96-48.398 2.8477-1.418 6.293-0.26953 7.7227 2.5781 1.418 2.8359 0.25781 6.293-2.5781 7.7227-49.02 24.508-102.48 41.035-158.95 49.137-15.883 22.93-46.18 37.07-79.812 37.07z"/>
  <path d="m350 331.26c-28.078 0-50.906 15.457-50.906 34.461s22.832 34.461 50.906 34.461c28.066 0 50.906-15.457 50.906-34.461s-22.84-34.461-50.906-34.461zm0 80.43c-34.422 0-62.418-20.621-62.418-45.969s27.996-45.973 62.418-45.973c34.41 0 62.418 20.621 62.418 45.973 0 25.348-28.008 45.973-62.418 45.969z"/>
  <path d="m468.38 161.9c-6.3359 0-11.492 5.1562-11.492 11.492s5.1562 11.488 11.488 11.488c6.3359 0 11.492-5.1562 11.492-11.488 0-6.3359-5.1562-11.488-11.488-11.492zm0 34.492c-12.68 0-23.004-10.32-23.004-23s10.32-23 23-23c12.68 0 23 10.32 23 23s-10.32 23-23 23z"/>
  <path d="m231.63 233.69c-6.3359 0-11.492 5.1445-11.492 11.492 0 6.3359 5.1562 11.488 11.488 11.488 6.3359 0 11.492-5.1562 11.492-11.488 0-6.3438-5.1562-11.492-11.488-11.492zm0 34.492c-12.68 0-23.004-10.32-23.004-23 0-12.691 10.32-23 23-23 12.691 0 23 10.312 23 23 0 12.68-10.312 23-23 23z"/>
  <path d="m381.87 74.434h0.007812zm-63.664-0.15234c1.168 2.3398 12.066 7.9531 31.801 7.9531 19.727 0 30.625-5.6172 31.793-7.9531-1.168-2.3281-12.07-7.9531-31.793-7.9531-19.73 0-30.633 5.625-31.801 7.9531zm31.801 19.465c-20.883 0-43.363-6.0938-43.363-19.461 0-13.367 22.48-19.465 43.363-19.465 20.875 0 43.352 6.0938 43.352 19.465 0 13.367-22.48 19.465-43.352 19.461z"/>
 </g>
</svg>
